<?xml version="1.0" standalone="no"?>
<!DOCTYPE svg PUBLIC "-//W3C//DTD SVG 20010904//EN"
 "http://www.w3.org/TR/2001/REC-SVG-20010904/DTD/svg10.dtd">
<svg version="1.0" xmlns="http://www.w3.org/2000/svg"
 width="128.000000pt" height="128.000000pt" viewBox="0 0 128.000000 128.000000"
 preserveAspectRatio="xMidYMid meet">
<metadata>
Created by potrace 1.11, written by Peter Selinger 2001-2013
</metadata>
<g transform="translate(0.000000,128.000000) scale(0.100000,-0.100000)"
fill="#000000" stroke="none">
<path d="M545 1269 c-38 -9 -98 -32 -105 -40 -3 -4 -30 -21 -62 -38 -37 -21
-58 -40 -62 -56 -4 -14 -13 -25 -21 -25 -8 0 -15 -6 -15 -14 0 -7 -6 -19 -14
-25 -8 -7 -27 -36 -42 -64 -26 -49 -27 -59 -26 -177 0 -69 3 -144 7 -167 5
-37 4 -43 -12 -43 -56 0 -57 -79 -5 -217 24 -64 39 -79 75 -80 15 -1 36 -1 47
-2 22 -1 60 -55 60 -84 0 -38 31 -83 77 -112 61 -37 171 -91 201 -98 24 -6
115 22 135 42 6 6 16 11 22 11 16 0 154 136 203 201 23 31 42 64 42 75 1 22
23 54 38 54 9 0 16 11 21 32 1 4 8 29 16 55 17 54 20 159 6 168 -12 7 -41 64
-47 90 -2 11 -5 61 -8 111 -2 51 -9 100 -14 110 -5 11 -20 39 -32 64 -38 76
-66 105 -139 148 -38 23 -73 42 -77 42 -4 0 -16 7 -26 16 -24 23 -181 37 -243
23z"/>
</g>
</svg>
